<?xml version="1.0" ?><svg contentScriptType="text/ecmascript" contentStyleType="text/css" enable-background="new 0 0 2048 2048" height="2048px" id="Layer_1" preserveAspectRatio="xMidYMid meet" version="1.1" viewBox="0.0 0 1536.0 2048" width="1536.0px" xml:space="preserve" xmlns="http://www.w3.org/2000/svg" xmlns:xlink="http://www.w3.org/1999/xlink" zoomAndPan="magnify"><path d="M1280,738c-37.333,16.667-77.667,28-121,34c45.333-26.667,76.333-65.667,93-117c-43.333,25.333-88,42.333-134,51  c-40.667-44-91.667-66-153-66c-58,0-107.5,20.5-148.5,61.5S755,792,755,850c0,19.333,1.667,35.333,5,48  c-86-4.667-166.667-26.333-242-65s-139.333-90.333-192-155c-19.333,33.333-29,68.667-29,106c0,76,30.333,134.333,91,175  c-31.333-0.667-64.667-9.333-100-26v2c0,50,16.667,94.5,50,133.5s74.333,63.167,123,72.5c-19.333,5.333-36.333,8-51,8  c-8.667,0-21.667-1.333-39-4c14,42,38.833,76.667,74.5,104s76.167,41.333,121.5,42c-77.333,60-164.333,90-261,90  c-17.333,0-34-1-50-3c98.667,62.667,206,94,322,94c74.667,0,144.667-11.833,210-35.5s121.333-55.333,168-95s86.833-85.333,120.5-137  s58.667-105.667,75-162C1167.833,986.167,1176,930,1176,874c0-12-0.333-21-1-27C1217,817,1252,780.667,1280,738z M1536,544v960  c0,79.333-28.167,147.167-84.5,203.5S1327.333,1792,1248,1792H288c-79.333,0-147.167-28.167-203.5-84.5S0,1583.333,0,1504V544  c0-79.333,28.167-147.167,84.5-203.5S208.667,256,288,256h960c79.333,0,147.167,28.167,203.5,84.5S1536,464.667,1536,544z"/></svg>